<svg xmlns="http://www.w3.org/2000/svg" xmlns:xlink="http://www.w3.org/1999/xlink" width="500" zoomAndPan="magnify" viewBox="0 0 375 374.999991" height="500" preserveAspectRatio="xMidYMid meet" version="1.0"><defs><g/><clipPath id="40142a4e9b"><path d="M 229 160.691406 L 340.730469 160.691406 L 340.730469 212.832031 L 229 212.832031 Z M 229 160.691406 " clip-rule="nonzero"/></clipPath><clipPath id="6c905bd1a6"><path d="M 270.261719 160.691406 L 335.039062 160.691406 C 337.09375 160.691406 338.976562 161.828125 339.933594 163.648438 C 340.890625 165.464844 340.765625 167.660156 339.605469 169.355469 L 315.746094 204.167969 C 312.03125 209.589844 305.882812 212.832031 299.308594 212.832031 L 234.53125 212.832031 C 232.480469 212.832031 230.59375 211.695312 229.636719 209.878906 C 228.679688 208.058594 228.808594 205.863281 229.96875 204.167969 L 253.824219 169.355469 C 257.539062 163.933594 263.691406 160.691406 270.261719 160.691406 Z M 270.261719 160.691406 " clip-rule="nonzero"/></clipPath></defs><rect x="-37.5" width="450" fill="#ffffff" y="-37.499999" height="449.999989" fill-opacity="1"/><rect x="-37.5" width="450" fill="#ffffff" y="-37.499999" height="449.999989" fill-opacity="1"/><g clip-path="url(#40142a4e9b)"><g clip-path="url(#6c905bd1a6)"><path fill="#000000" d="M 224.03125 160.691406 L 345.621094 160.691406 L 345.621094 212.832031 L 224.03125 212.832031 Z M 224.03125 160.691406 " fill-opacity="1" fill-rule="nonzero"/></g></g><g fill="#f2f2f2" fill-opacity="0.4"><g transform="translate(68.234208, 203.394442)"><g><path d="M 4.59375 -38.59375 C 5.457031 -39.457031 6.566406 -39.890625 7.921875 -39.890625 C 9.273438 -39.890625 10.382812 -39.457031 11.25 -38.59375 C 12.113281 -37.726562 12.546875 -36.617188 12.546875 -35.265625 C 12.546875 -33.910156 12.113281 -32.789062 11.25 -31.90625 C 10.382812 -31.03125 9.273438 -30.59375 7.921875 -30.59375 C 6.566406 -30.59375 5.457031 -31.03125 4.59375 -31.90625 C 3.726562 -32.789062 3.296875 -33.910156 3.296875 -35.265625 C 3.296875 -36.617188 3.726562 -37.726562 4.59375 -38.59375 Z M 12.25 0 L 3.5 0 L 3.5 -27.390625 L 12.25 -27.390625 Z M 12.25 0 "/></g></g></g><g fill="#f2f2f2" fill-opacity="0.4"><g transform="translate(81.139604, 203.394442)"><g><path d="M 21.4375 -27.796875 C 24.457031 -27.796875 26.878906 -26.835938 28.703125 -24.921875 C 30.535156 -23.003906 31.453125 -20.457031 31.453125 -17.28125 L 31.453125 0 L 22.71875 0 L 22.71875 -14.84375 C 22.71875 -16.425781 22.285156 -17.679688 21.421875 -18.609375 C 20.554688 -19.546875 19.378906 -20.015625 17.890625 -20.015625 C 16.328125 -20.015625 15.046875 -19.503906 14.046875 -18.484375 C 13.046875 -17.472656 12.460938 -16.140625 12.296875 -14.484375 L 12.296875 0 L 3.5 0 L 3.5 -27.390625 L 12.296875 -27.390625 L 12.296875 -22.921875 C 14.222656 -26.097656 17.269531 -27.722656 21.4375 -27.796875 Z M 21.4375 -27.796875 "/></g></g></g><g fill="#f2f2f2" fill-opacity="0.4"><g transform="translate(112.438132, 203.394442)"><g><path d="M 15.453125 -27.6875 C 18.160156 -27.6875 20.570312 -27.148438 22.6875 -26.078125 C 24.800781 -25.015625 26.453125 -23.503906 27.640625 -21.546875 L 21.34375 -17.734375 C 19.988281 -19.628906 18.140625 -20.578125 15.796875 -20.578125 C 14.109375 -20.578125 12.726562 -19.941406 11.65625 -18.671875 C 10.59375 -17.398438 10.0625 -15.734375 10.0625 -13.671875 C 10.0625 -11.566406 10.585938 -9.878906 11.640625 -8.609375 C 12.691406 -7.335938 14.078125 -6.703125 15.796875 -6.703125 C 18.378906 -6.703125 20.242188 -7.738281 21.390625 -9.8125 L 27.796875 -6.046875 C 26.679688 -4.015625 25.046875 -2.445312 22.890625 -1.34375 C 20.742188 -0.238281 18.226562 0.3125 15.34375 0.3125 C 11.113281 0.3125 7.703125 -0.96875 5.109375 -3.53125 C 2.515625 -6.09375 1.21875 -9.457031 1.21875 -13.625 C 1.21875 -17.820312 2.53125 -21.210938 5.15625 -23.796875 C 7.78125 -26.390625 11.210938 -27.6875 15.453125 -27.6875 Z M 15.453125 -27.6875 "/></g></g></g><g fill="#f2f2f2" fill-opacity="0.4"><g transform="translate(138.096768, 203.394442)"><g><path d="M 12.546875 0 L 3.765625 0 L 3.765625 -37.703125 L 12.546875 -37.703125 Z M 12.546875 0 "/></g></g></g><g fill="#f2f2f2" fill-opacity="0.4"><g transform="translate(151.510257, 203.394442)"><g><path d="M 30.1875 -27.390625 L 30.1875 0 L 21.390625 0 L 21.390625 -4.515625 C 19.523438 -1.265625 16.5625 0.359375 12.5 0.359375 C 9.519531 0.359375 7.140625 -0.585938 5.359375 -2.484375 C 3.578125 -4.378906 2.6875 -6.921875 2.6875 -10.109375 L 2.6875 -27.390625 L 11.484375 -27.390625 L 11.484375 -12.59375 C 11.484375 -10.96875 11.894531 -9.691406 12.71875 -8.765625 C 13.550781 -7.835938 14.664062 -7.375 16.0625 -7.375 C 17.71875 -7.40625 19.019531 -8.019531 19.96875 -9.21875 C 20.914062 -10.425781 21.390625 -11.976562 21.390625 -13.875 L 21.390625 -27.390625 Z M 30.1875 -27.390625 "/></g></g></g><g fill="#f2f2f2" fill-opacity="0.4"><g transform="translate(182.300686, 203.394442)"><g><path d="M 31.09375 -37.703125 L 31.09375 0 L 22.3125 0 L 22.3125 -3.609375 C 20.3125 -0.960938 17.566406 0.359375 14.078125 0.359375 C 10.210938 0.359375 7.109375 -0.941406 4.765625 -3.546875 C 2.429688 -6.160156 1.265625 -9.585938 1.265625 -13.828125 C 1.265625 -18.023438 2.414062 -21.394531 4.71875 -23.9375 C 7.03125 -26.476562 10.082031 -27.75 13.875 -27.75 C 17.5 -27.75 20.3125 -26.425781 22.3125 -23.78125 L 22.3125 -37.703125 Z M 11.78125 -8.4375 C 12.90625 -7.113281 14.378906 -6.453125 16.203125 -6.453125 C 18.035156 -6.453125 19.507812 -7.113281 20.625 -8.4375 C 21.75 -9.757812 22.3125 -11.488281 22.3125 -13.625 C 22.3125 -15.71875 21.75 -17.425781 20.625 -18.75 C 19.507812 -20.070312 18.035156 -20.734375 16.203125 -20.734375 C 14.378906 -20.734375 12.90625 -20.078125 11.78125 -18.765625 C 10.664062 -17.460938 10.09375 -15.75 10.0625 -13.625 C 10.09375 -11.488281 10.664062 -9.757812 11.78125 -8.4375 Z M 11.78125 -8.4375 "/></g></g></g><g fill="#f2f2f2" fill-opacity="0.4"><g transform="translate(214.259748, 203.394442)"><g><path d="M 15.5 -27.6875 C 20.238281 -27.6875 23.800781 -26.226562 26.1875 -23.3125 C 28.582031 -20.40625 29.625 -16.410156 29.3125 -11.328125 L 10.0625 -11.328125 C 10.5 -9.703125 11.273438 -8.445312 12.390625 -7.5625 C 13.515625 -6.6875 14.890625 -6.25 16.515625 -6.25 C 19.023438 -6.25 21.207031 -7.179688 23.0625 -9.046875 L 27.6875 -4.515625 C 24.738281 -1.296875 20.757812 0.3125 15.75 0.3125 C 11.3125 0.3125 7.78125 -0.957031 5.15625 -3.5 C 2.53125 -6.039062 1.21875 -9.414062 1.21875 -13.625 C 1.21875 -17.851562 2.53125 -21.253906 5.15625 -23.828125 C 7.78125 -26.398438 11.226562 -27.6875 15.5 -27.6875 Z M 9.90625 -16.0625 L 20.890625 -16.0625 C 20.890625 -17.71875 20.40625 -19.050781 19.4375 -20.0625 C 18.46875 -21.082031 17.1875 -21.59375 15.59375 -21.59375 C 14.101562 -21.59375 12.847656 -21.09375 11.828125 -20.09375 C 10.816406 -19.09375 10.175781 -17.75 9.90625 -16.0625 Z M 9.90625 -16.0625 "/></g></g></g><g fill="#000000" fill-opacity="1"><g transform="translate(67.515578, 202.675819)"><g><path d="M 4.59375 -38.59375 C 5.457031 -39.457031 6.566406 -39.890625 7.921875 -39.890625 C 9.273438 -39.890625 10.382812 -39.457031 11.25 -38.59375 C 12.113281 -37.726562 12.546875 -36.617188 12.546875 -35.265625 C 12.546875 -33.910156 12.113281 -32.789062 11.25 -31.90625 C 10.382812 -31.03125 9.273438 -30.59375 7.921875 -30.59375 C 6.566406 -30.59375 5.457031 -31.03125 4.59375 -31.90625 C 3.726562 -32.789062 3.296875 -33.910156 3.296875 -35.265625 C 3.296875 -36.617188 3.726562 -37.726562 4.59375 -38.59375 Z M 12.25 0 L 3.5 0 L 3.5 -27.390625 L 12.25 -27.390625 Z M 12.25 0 "/></g></g></g><g fill="#000000" fill-opacity="1"><g transform="translate(80.420974, 202.675819)"><g><path d="M 21.4375 -27.796875 C 24.457031 -27.796875 26.878906 -26.835938 28.703125 -24.921875 C 30.535156 -23.003906 31.453125 -20.457031 31.453125 -17.28125 L 31.453125 0 L 22.71875 0 L 22.71875 -14.84375 C 22.71875 -16.425781 22.285156 -17.679688 21.421875 -18.609375 C 20.554688 -19.546875 19.378906 -20.015625 17.890625 -20.015625 C 16.328125 -20.015625 15.046875 -19.503906 14.046875 -18.484375 C 13.046875 -17.472656 12.460938 -16.140625 12.296875 -14.484375 L 12.296875 0 L 3.5 0 L 3.5 -27.390625 L 12.296875 -27.390625 L 12.296875 -22.921875 C 14.222656 -26.097656 17.269531 -27.722656 21.4375 -27.796875 Z M 21.4375 -27.796875 "/></g></g></g><g fill="#000000" fill-opacity="1"><g transform="translate(111.719503, 202.675819)"><g><path d="M 15.453125 -27.6875 C 18.160156 -27.6875 20.570312 -27.148438 22.6875 -26.078125 C 24.800781 -25.015625 26.453125 -23.503906 27.640625 -21.546875 L 21.34375 -17.734375 C 19.988281 -19.628906 18.140625 -20.578125 15.796875 -20.578125 C 14.109375 -20.578125 12.726562 -19.941406 11.65625 -18.671875 C 10.59375 -17.398438 10.0625 -15.734375 10.0625 -13.671875 C 10.0625 -11.566406 10.585938 -9.878906 11.640625 -8.609375 C 12.691406 -7.335938 14.078125 -6.703125 15.796875 -6.703125 C 18.378906 -6.703125 20.242188 -7.738281 21.390625 -9.8125 L 27.796875 -6.046875 C 26.679688 -4.015625 25.046875 -2.445312 22.890625 -1.34375 C 20.742188 -0.238281 18.226562 0.3125 15.34375 0.3125 C 11.113281 0.3125 7.703125 -0.96875 5.109375 -3.53125 C 2.515625 -6.09375 1.21875 -9.457031 1.21875 -13.625 C 1.21875 -17.820312 2.53125 -21.210938 5.15625 -23.796875 C 7.78125 -26.390625 11.210938 -27.6875 15.453125 -27.6875 Z M 15.453125 -27.6875 "/></g></g></g><g fill="#000000" fill-opacity="1"><g transform="translate(137.378138, 202.675819)"><g><path d="M 12.546875 0 L 3.765625 0 L 3.765625 -37.703125 L 12.546875 -37.703125 Z M 12.546875 0 "/></g></g></g><g fill="#000000" fill-opacity="1"><g transform="translate(150.791628, 202.675819)"><g><path d="M 30.1875 -27.390625 L 30.1875 0 L 21.390625 0 L 21.390625 -4.515625 C 19.523438 -1.265625 16.5625 0.359375 12.5 0.359375 C 9.519531 0.359375 7.140625 -0.585938 5.359375 -2.484375 C 3.578125 -4.378906 2.6875 -6.921875 2.6875 -10.109375 L 2.6875 -27.390625 L 11.484375 -27.390625 L 11.484375 -12.59375 C 11.484375 -10.96875 11.894531 -9.691406 12.71875 -8.765625 C 13.550781 -7.835938 14.664062 -7.375 16.0625 -7.375 C 17.71875 -7.40625 19.019531 -8.019531 19.96875 -9.21875 C 20.914062 -10.425781 21.390625 -11.976562 21.390625 -13.875 L 21.390625 -27.390625 Z M 30.1875 -27.390625 "/></g></g></g><g fill="#000000" fill-opacity="1"><g transform="translate(181.582056, 202.675819)"><g><path d="M 31.09375 -37.703125 L 31.09375 0 L 22.3125 0 L 22.3125 -3.609375 C 20.3125 -0.960938 17.566406 0.359375 14.078125 0.359375 C 10.210938 0.359375 7.109375 -0.941406 4.765625 -3.546875 C 2.429688 -6.160156 1.265625 -9.585938 1.265625 -13.828125 C 1.265625 -18.023438 2.414062 -21.394531 4.71875 -23.9375 C 7.03125 -26.476562 10.082031 -27.75 13.875 -27.75 C 17.5 -27.75 20.3125 -26.425781 22.3125 -23.78125 L 22.3125 -37.703125 Z M 11.78125 -8.4375 C 12.90625 -7.113281 14.378906 -6.453125 16.203125 -6.453125 C 18.035156 -6.453125 19.507812 -7.113281 20.625 -8.4375 C 21.75 -9.757812 22.3125 -11.488281 22.3125 -13.625 C 22.3125 -15.71875 21.75 -17.425781 20.625 -18.75 C 19.507812 -20.070312 18.035156 -20.734375 16.203125 -20.734375 C 14.378906 -20.734375 12.90625 -20.078125 11.78125 -18.765625 C 10.664062 -17.460938 10.09375 -15.75 10.0625 -13.625 C 10.09375 -11.488281 10.664062 -9.757812 11.78125 -8.4375 Z M 11.78125 -8.4375 "/></g></g></g><g fill="#000000" fill-opacity="1"><g transform="translate(213.541119, 202.675819)"><g><path d="M 15.5 -27.6875 C 20.238281 -27.6875 23.800781 -26.226562 26.1875 -23.3125 C 28.582031 -20.40625 29.625 -16.410156 29.3125 -11.328125 L 10.0625 -11.328125 C 10.5 -9.703125 11.273438 -8.445312 12.390625 -7.5625 C 13.515625 -6.6875 14.890625 -6.25 16.515625 -6.25 C 19.023438 -6.25 21.207031 -7.179688 23.0625 -9.046875 L 27.6875 -4.515625 C 24.738281 -1.296875 20.757812 0.3125 15.75 0.3125 C 11.3125 0.3125 7.78125 -0.957031 5.15625 -3.5 C 2.53125 -6.039062 1.21875 -9.414062 1.21875 -13.625 C 1.21875 -17.851562 2.53125 -21.253906 5.15625 -23.828125 C 7.78125 -26.398438 11.226562 -27.6875 15.5 -27.6875 Z M 9.90625 -16.0625 L 20.890625 -16.0625 C 20.890625 -17.71875 20.40625 -19.050781 19.4375 -20.0625 C 18.46875 -21.082031 17.1875 -21.59375 15.59375 -21.59375 C 14.101562 -21.59375 12.847656 -21.09375 11.828125 -20.09375 C 10.816406 -19.09375 10.175781 -17.75 9.90625 -16.0625 Z M 9.90625 -16.0625 "/></g></g></g><g fill="#ffde59" fill-opacity="1"><g transform="translate(243.526877, 202.205118)"><g><path d="M 4.390625 -38.5625 C 5.328125 -39.445312 6.519531 -39.890625 7.96875 -39.890625 C 9.425781 -39.890625 10.617188 -39.457031 11.546875 -38.59375 C 12.484375 -37.726562 12.953125 -36.601562 12.953125 -35.21875 C 12.953125 -33.863281 12.484375 -32.753906 11.546875 -31.890625 C 10.617188 -31.023438 9.425781 -30.59375 7.96875 -30.59375 C 6.519531 -30.59375 5.328125 -31.023438 4.390625 -31.890625 C 3.460938 -32.753906 3 -33.863281 3 -35.21875 C 3 -36.570312 3.460938 -37.6875 4.390625 -38.5625 Z M 12.390625 -27.390625 L 12.390625 0.8125 C 12.390625 3.789062 11.457031 6.109375 9.59375 7.765625 C 7.738281 9.429688 5.351562 10.25 2.4375 10.21875 C -0.238281 10.21875 -2.523438 9.625 -4.421875 8.4375 L -2.1875 2.28125 C -1.101562 2.925781 -0.0664062 3.25 0.921875 3.25 C 1.765625 3.28125 2.421875 3.039062 2.890625 2.53125 C 3.367188 2.03125 3.609375 1.269531 3.609375 0.25 L 3.609375 -27.390625 Z M 12.390625 -27.390625 "/></g></g></g><g fill="#ffde59" fill-opacity="1"><g transform="translate(256.835872, 202.205118)"><g><path d="M 13.3125 -27.796875 C 17.34375 -27.796875 21.101562 -26.757812 24.59375 -24.6875 L 21.59375 -19 C 18.207031 -20.832031 15.328125 -21.75 12.953125 -21.75 C 11.160156 -21.75 10.265625 -21.125 10.265625 -19.875 C 10.265625 -19.1875 10.753906 -18.613281 11.734375 -18.15625 C 12.722656 -17.707031 13.925781 -17.296875 15.34375 -16.921875 C 16.769531 -16.546875 18.1875 -16.078125 19.59375 -15.515625 C 21 -14.960938 22.191406 -14.078125 23.171875 -12.859375 C 24.148438 -11.640625 24.640625 -10.148438 24.640625 -8.390625 C 24.640625 -5.640625 23.570312 -3.492188 21.4375 -1.953125 C 19.300781 -0.410156 16.523438 0.359375 13.109375 0.359375 C 8.265625 0.359375 4.164062 -0.925781 0.8125 -3.5 L 3.609375 -9.09375 C 6.828125 -6.820312 10.0625 -5.6875 13.3125 -5.6875 C 15.3125 -5.6875 16.3125 -6.316406 16.3125 -7.578125 C 16.3125 -8.285156 15.828125 -8.875 14.859375 -9.34375 C 13.898438 -9.820312 12.722656 -10.242188 11.328125 -10.609375 C 9.941406 -10.984375 8.550781 -11.453125 7.15625 -12.015625 C 5.769531 -12.578125 4.59375 -13.445312 3.625 -14.625 C 2.664062 -15.8125 2.1875 -17.304688 2.1875 -19.109375 C 2.1875 -21.847656 3.21875 -23.976562 5.28125 -25.5 C 7.351562 -27.03125 10.03125 -27.796875 13.3125 -27.796875 Z M 13.3125 -27.796875 "/></g></g></g></svg>